<svg width="46" height="39" viewBox="0 0 46 39" fill="none" xmlns="http://www.w3.org/2000/svg">
<path d="M29.0851 21.5957L25.6863 21.5958L22.5319 25.1495L19.3774 21.5957L15.9787 21.5957L22.5319 28.8268L29.0851 21.5957Z" fill="#EE7130"/>
<path d="M29.0851 12.234L25.6863 12.2341L22.5319 15.7878L19.3774 12.234L15.9787 12.234L22.5319 19.4651L29.0851 12.234Z" fill="#EE7130"/>
<path d="M18.2432 37.5676H11.4054L1 19.4324L11.4054 1H18.2432" stroke="white"/>
<path d="M27.7567 0.999996L34.5945 0.999995L44.9999 19.1351L34.5945 37.5676L27.7567 37.5676" stroke="white"/>
<path d="M18.2432 37.5676H11.4054L1 19.4324L11.4054 1H18.2432" stroke="white"/>
<path d="M27.7567 0.999996L34.5945 0.999995L44.9999 19.1351L34.5945 37.5676L27.7567 37.5676" stroke="white"/>
</svg>
