<svg width="28" height="28" viewBox="0 0 28 28" fill="none" xmlns="http://www.w3.org/2000/svg">
<path d="M13.9424 0C6.22222 0 0 6.22222 0 13.9424C0 21.6626 6.22222 27.8848 13.9424 27.8848C21.6626 27.8848 27.8848 21.6626 27.8848 13.9424C28 6.22222 21.6626 0 13.9424 0ZM13.9424 2.41975C16.5926 2.41975 19.0123 3.34156 20.9712 4.83951C19.5885 6.68313 17.6296 8.06584 15.2099 9.10288C14.0576 6.91358 12.6749 4.83951 11.177 2.76543C12.0988 2.53498 13.0206 2.41975 13.9424 2.41975ZM8.7572 3.68724C10.3704 5.76132 11.6379 7.83539 12.9053 9.90947C10.0247 10.8313 6.68313 11.177 2.76543 11.2922C3.57202 7.95062 5.76132 5.18519 8.7572 3.68724ZM2.41975 13.9424C2.41975 13.8272 2.41975 13.7119 2.41975 13.5967C6.91358 13.5967 10.716 13.0206 14.0576 12.0988C14.2881 12.6749 14.6337 13.251 14.8642 13.7119C10.9465 14.9794 7.72016 17.5144 5.18519 21.3169C3.45679 19.358 2.41975 16.823 2.41975 13.9424ZM13.9424 25.5802C11.2922 25.5802 8.87243 24.6584 6.91358 23.1605C9.21811 19.5885 12.0988 17.1687 15.786 16.1317C16.823 18.8971 17.6296 21.893 18.2058 24.7737C16.823 25.2346 15.4403 25.5802 13.9424 25.5802ZM20.3951 23.6214C19.9342 20.856 19.1276 18.2058 18.2058 15.5556C20.3951 15.2099 22.8148 15.3251 25.465 15.786C24.8889 19.0123 23.0453 21.7778 20.3951 23.6214ZM17.1687 13.251C16.9383 12.5597 16.5926 11.9835 16.2469 11.2922C18.8971 10.1399 21.0864 8.52675 22.6996 6.5679C24.3128 8.41152 25.2346 10.8313 25.3498 13.3663C22.4691 12.7901 19.7037 12.7901 17.1687 13.251Z" fill="white"/>
</svg>
