<svg width="29" height="29" viewBox="0 0 29 29" fill="none" xmlns="http://www.w3.org/2000/svg">
<path d="M6.52889 9.71729H0.607422V29H6.52889V9.71729Z" fill="white"/>
<path d="M3.49215 7.13612C5.46597 7.13612 6.98429 5.46597 6.98429 3.64398C6.98429 1.82199 5.46597 0 3.49215 0C1.51832 0 0 1.67016 0 3.49215C0 5.31414 1.51832 7.13612 3.49215 7.13612Z" fill="white"/>
<path d="M16.0939 18.8272C16.0939 16.0943 17.3085 14.4241 19.7378 14.4241C21.8635 14.4241 22.9263 15.9424 22.9263 18.8272C22.9263 21.5602 22.9263 29 22.9263 29H28.8478C28.8478 29 28.8478 22.0157 28.8478 16.7016C28.8478 11.5393 25.963 8.95813 21.8635 8.95813C17.764 8.95813 16.0939 12.1466 16.0939 12.1466V9.71729H10.3242V29H16.0939C16.0939 29 16.0939 21.8639 16.0939 18.8272Z" fill="white"/>
</svg>
