<svg width="52" height="52" viewBox="0 0 52 52" fill="none" xmlns="http://www.w3.org/2000/svg">
<path d="M22.5628 32.6984H29.0413C29.0066 18.9228 15.6154 19.3018 15.6154 19.3018V25.8855C15.6154 25.8855 22.5628 25.4713 22.5628 32.6984Z" fill="#EE7131"/>
<path d="M39.5827 19.2636H33.1042V32.6602L37.5552 32.635L39.5827 30.4909V19.2636Z" fill="#EE7131"/>
<path d="M7.64316 0L2.69308 4.87392V11.1315L0.574097 13.3526V30.0983H2.69308V33.6943H0.574097V40.8949H2.69308V52.0177H23.4313V49.7526H38.6202L40.7479 52.0529H47.2524L51.8551 47.179V0H7.64316ZM50.952 46.7119L46.879 51.0834H41.0952L38.9676 48.7831H22.5455V51.0482H3.56151V43.2217V33.8882V31.5085V10.3559V5.1912L7.98184 0.837299H50.952V46.7119Z" fill="#EE7131"/>
</svg>
